<svg width="80" height="80" viewBox="0 0 80 80" fill="none" xmlns="http://www.w3.org/2000/svg">
<path fill-rule="evenodd" clip-rule="evenodd" d="M51.0663 28.0607L49.82 28.9035L45.4829 22.0608L44.4377 19.2887L43.1146 15.7747L40.7092 16.0397L40.3282 15.2658L38.9945 19.2887L38.9866 19.3126L37.2771 22.0608L36.1313 23.9026L38.8093 22.0608L39.0395 21.9044L38.9257 22.0608L36.2875 25.7418L43.7391 23.1792L34.9459 27.5837L33.1121 30.0801L37.4041 27.5015L41.3734 29.1552L36.6897 28.983L36.4489 31.3178L28.9735 36.7824L32.9162 35.4493L29.6403 38.2055L25.5546 38.0968L31.5349 32.4679L27.8753 34.4052L29.7382 32.5792L30.2912 28.559L29.3307 29.8257L29.5027 27.4008L28.0261 31.3681L25.3482 37.2832L24.946 35.3513L27.0814 31.7365L27.0761 31.7285L27.7774 27.7189L28.2722 28.5033L30.0637 23.6456L32.9427 22.1005L32.9639 22.0608L34.3902 19.2887L35.2793 17.5635L40.5954 11.8259L41.7941 14.5052L43.2019 14.5847L45.4247 18.9416L45.6073 19.2887L47.0468 22.0608L51.0663 28.0607Z" fill="#F00A0C"/>
<path fill-rule="evenodd" clip-rule="evenodd" d="M51.0663 28.0607L49.82 28.9035L45.4829 22.0608L44.4377 19.2887L43.1146 15.7747L40.7092 16.0397L40.3282 15.2658L38.9945 19.2887L38.9866 19.3126L37.2771 22.0608L36.1313 23.9026L38.8093 22.0608L39.0395 21.9044L38.9257 22.0608L36.2875 25.7418L43.7391 23.1792L34.9459 27.5837L33.1121 30.0801L37.4041 27.5015L41.3734 29.1552L36.6897 28.983L36.4489 31.3178L28.9735 36.7824L32.9162 35.4493L29.6403 38.2055L25.5546 38.0968L31.5349 32.4679L27.8753 34.4052L29.7382 32.5792L30.2912 28.559L29.3307 29.8257L29.5027 27.4008L28.0261 31.3681L25.3482 37.2832L24.946 35.3513L27.0814 31.7365L27.0761 31.7285L27.7774 27.7189L28.2722 28.5033L30.0637 23.6456L32.9427 22.1005L32.9639 22.0608L34.3902 19.2887L35.2793 17.5635L40.5954 11.8259L41.7941 14.5052L43.2019 14.5847L45.4247 18.9416L45.6073 19.2887L47.0468 22.0608L51.0663 28.0607Z" fill="#111111"/>
<path fill-rule="evenodd" clip-rule="evenodd" d="M58.6846 25.3205L56.1443 22.8267L54.9006 25.0449L51.0239 26.3381L48.9917 29.574L52.2227 27.7268L47.8856 32.301L48.0682 32.8098L43.9163 34.0103L49.3145 33.9653L52.7757 31.5616L50.5132 34.058L45.9936 35.028L43.9163 37.3389L41.9317 37.1083L40 38.8442H43.1807L48.9917 36.1834L46.7292 36.5067L48.2534 35.399L51.8998 35.2135L56.0543 32.4388L55.7765 29.8522L57.3456 30.9149L57.3906 33.2259L58.0839 30.7771L56.0543 27.3558L57.8061 28.4635L56.9302 24.6738L58.6846 25.3205Z" fill="#F00A0C"/>
<path fill-rule="evenodd" clip-rule="evenodd" d="M58.6846 25.3205L56.1443 22.8267L54.9006 25.0449L51.0239 26.3381L48.9917 29.574L52.2227 27.7268L47.8856 32.301L48.0682 32.8098L43.9163 34.0103L49.3145 33.9653L52.7757 31.5616L50.5132 34.058L45.9936 35.028L43.9163 37.3389L41.9317 37.1083L40 38.8442H43.1807L48.9917 36.1834L46.7292 36.5067L48.2534 35.399L51.8998 35.2135L56.0543 32.4388L55.7765 29.8522L57.3456 30.9149L57.3906 33.2259L58.0839 30.7771L56.0543 27.3558L57.8061 28.4635L56.9302 24.6738L58.6846 25.3205Z" fill="#111111"/>
<path fill-rule="evenodd" clip-rule="evenodd" d="M50.6111 38.5765L51.9501 37.2382L56.61 35.3884L59.7034 32.5236L63.3974 31.0898L66.0277 34.2329L67.8721 34.3257L68.8432 36.9599L66.6734 35.2055L64.919 35.2506L63.7176 32.4308L60.9021 33.8168L56.8429 37.3283L56.9805 36.1278L50.6111 38.5765Z" fill="#F00A0C"/>
<path fill-rule="evenodd" clip-rule="evenodd" d="M50.6111 38.5765L51.9501 37.2382L56.61 35.3884L59.7034 32.5236L63.3974 31.0898L66.0277 34.2329L67.8721 34.3257L68.8432 36.9599L66.6734 35.2055L64.919 35.2506L63.7176 32.4308L60.9021 33.8168L56.8429 37.3283L56.9805 36.1278L50.6111 38.5765Z" fill="#111111"/>
<path fill-rule="evenodd" clip-rule="evenodd" d="M71.2195 37.4873V38.8442H70.1081L68.4516 37.3601L66.6681 35.7673H68.0521L63.977 33.035L63.3472 32.6137L62.6062 32.1154L64.7047 32.6534L64.7761 32.672L63.7626 29.5289L61.3626 28.5563L59.0075 27.6341L60.0209 27.4936L61.6854 27.8196L56.9699 24.8435L57.2266 24.7851L57.9622 24.6129L57.9649 24.6155L64.8661 29.2506L65.652 31.9776L68.4516 34.7815L68.7454 35.0757H70.0367L71.2195 37.4873Z" fill="#F00A0C"/>
<path fill-rule="evenodd" clip-rule="evenodd" d="M71.2195 37.4873V38.8442H70.1081L68.4516 37.3601L66.6681 35.7673H68.0521L63.977 33.035L63.3472 32.6137L62.6062 32.1154L64.7047 32.6534L64.7761 32.672L63.7626 29.5289L61.3626 28.5563L59.0075 27.6341L60.0209 27.4936L61.6854 27.8196L56.9699 24.8435L57.2266 24.7851L57.9622 24.6129L57.9649 24.6155L64.8661 29.2506L65.652 31.9776L68.4516 34.7815L68.7454 35.0757H70.0367L71.2195 37.4873Z" fill="#111111"/>
<path fill-rule="evenodd" clip-rule="evenodd" d="M67.9594 37.6172L64.313 34.6119L64.6835 36.0006L67.9594 37.6172Z" fill="#F00A0C"/>
<path fill-rule="evenodd" clip-rule="evenodd" d="M67.9594 37.6172L64.313 34.6119L64.6835 36.0006L67.9594 37.6172Z" fill="#111111"/>
<path d="M24.6046 39.7532L20.0638 35.9979L15.3854 42.875L14.0226 41.4228C14.0226 41.4228 13.0858 42.6498 11.5484 43.951C10.7678 44.6109 9.8284 45.2946 8.78052 45.8432V39.6551C9.59818 39.3106 10.5376 38.8627 11.5484 38.285C15.0149 36.3027 19.3414 32.7886 22.6332 26.6985L23.8531 30.3663L22.0537 33.2365C22.7629 35.3751 24.6046 39.7558 24.6046 39.7558V39.7532Z" fill="#F00A0C"/>
<path d="M24.6046 39.7532L20.0638 35.9979L15.3854 42.875L14.0226 41.4228C14.0226 41.4228 13.0858 42.6498 11.5484 43.951C10.7678 44.6109 9.8284 45.2946 8.78052 45.8432V39.6551C9.59818 39.3106 10.5376 38.8627 11.5484 38.285C15.0149 36.3027 19.3414 32.7886 22.6332 26.6985L23.8531 30.3663L22.0537 33.2365C22.7629 35.3751 24.6046 39.7558 24.6046 39.7558V39.7532Z" fill="#111111"/>
<path d="M44.4376 19.2887L45.4829 22.0608H68.4516V65.3986H11.5484V22.0608H37.2745L38.9839 19.3126L38.9918 19.2887H8.78052V68.1707H71.2195V19.2887H44.4376ZM38.9257 22.0608L39.0394 21.9018L38.8092 22.0608H38.9257ZM38.8092 22.0608H38.9257L39.0394 21.9018L38.8092 22.0608Z" fill="#F00A0C"/>
<path d="M44.4376 19.2887L45.4829 22.0608H68.4516V65.3986H11.5484V22.0608H37.2745L38.9839 19.3126L38.9918 19.2887H8.78052V68.1707H71.2195V19.2887H44.4376ZM38.9257 22.0608L39.0394 21.9018L38.8092 22.0608H38.9257ZM38.8092 22.0608H38.9257L39.0394 21.9018L38.8092 22.0608Z" fill="#111111"/>
<path d="M15.1789 51.9703C15.3351 52.6647 15.8325 52.9668 16.6317 52.9668C17.4308 52.9668 17.7669 52.6514 17.7669 52.1479C17.7669 51.586 17.4335 51.3422 16.2559 51.0666C14.3798 50.6267 13.9167 49.943 13.9167 49.0101C13.9167 47.8069 14.8164 46.9907 16.4464 46.9907C18.2776 46.9907 19.0053 47.9765 19.1032 48.9863H17.6028C17.5314 48.5622 17.2959 48.1011 16.4067 48.1011C15.8008 48.1011 15.4356 48.3502 15.4356 48.8405C15.4356 49.3308 15.7293 49.5163 16.8407 49.7733C18.8465 50.2451 19.2858 50.9924 19.2858 51.9677C19.2858 53.2291 18.3332 54.0931 16.5126 54.0931C14.692 54.0931 13.8426 53.2318 13.6759 51.973H15.1763L15.1789 51.9703Z" fill="#F00A0C"/>
<path d="M15.1789 51.9703C15.3351 52.6647 15.8325 52.9668 16.6317 52.9668C17.4308 52.9668 17.7669 52.6514 17.7669 52.1479C17.7669 51.586 17.4335 51.3422 16.2559 51.0666C14.3798 50.6267 13.9167 49.943 13.9167 49.0101C13.9167 47.8069 14.8164 46.9907 16.4464 46.9907C18.2776 46.9907 19.0053 47.9765 19.1032 48.9863H17.6028C17.5314 48.5622 17.2959 48.1011 16.4067 48.1011C15.8008 48.1011 15.4356 48.3502 15.4356 48.8405C15.4356 49.3308 15.7293 49.5163 16.8407 49.7733C18.8465 50.2451 19.2858 50.9924 19.2858 51.9677C19.2858 53.2291 18.3332 54.0931 16.5126 54.0931C14.692 54.0931 13.8426 53.2318 13.6759 51.973H15.1763L15.1789 51.9703Z" fill="#111111"/>
<path d="M26.8247 50.5207C26.8247 52.4421 25.6736 54.0958 23.435 54.0958C21.1963 54.0958 20.1405 52.5216 20.1405 50.5446C20.1405 48.5676 21.3921 46.9934 23.5329 46.9934C25.5493 46.9934 26.8274 48.4085 26.8274 50.5207H26.8247ZM21.6779 50.5128C21.6779 51.859 22.268 52.8793 23.4906 52.8793C24.8163 52.8793 25.2847 51.7689 25.2847 50.5366C25.2847 49.2301 24.7501 48.2045 23.4667 48.2045C22.1833 48.2045 21.6779 49.1665 21.6779 50.5128Z" fill="#F00A0C"/>
<path d="M26.8247 50.5207C26.8247 52.4421 25.6736 54.0958 23.435 54.0958C21.1963 54.0958 20.1405 52.5216 20.1405 50.5446C20.1405 48.5676 21.3921 46.9934 23.5329 46.9934C25.5493 46.9934 26.8274 48.4085 26.8274 50.5207H26.8247ZM21.6779 50.5128C21.6779 51.859 22.268 52.8793 23.4906 52.8793C24.8163 52.8793 25.2847 51.7689 25.2847 50.5366C25.2847 49.2301 24.7501 48.2045 23.4667 48.2045C22.1833 48.2045 21.6779 49.1665 21.6779 50.5128Z" fill="#111111"/>
<path d="M29.5371 47.0914V51.2044C29.5371 52.5295 30.2171 52.9217 30.9607 52.9217C31.8128 52.9217 32.3499 52.458 32.3499 51.2044V47.0914H33.8424V51.1302C33.8424 53.4915 32.4637 54.0931 30.9422 54.0931C29.4206 54.0931 28.0446 53.465 28.0446 51.1594V47.0914H29.5371Z" fill="#F00A0C"/>
<path d="M29.5371 47.0914V51.2044C29.5371 52.5295 30.2171 52.9217 30.9607 52.9217C31.8128 52.9217 32.3499 52.458 32.3499 51.2044V47.0914H33.8424V51.1302C33.8424 53.4915 32.4637 54.0931 30.9422 54.0931C29.4206 54.0931 28.0446 53.465 28.0446 51.1594V47.0914H29.5371Z" fill="#111111"/>
<path d="M36.9198 48.3158H34.8267V47.0914H40.5001V48.3158H38.4123V53.995H36.9198V48.3158Z" fill="#F00A0C"/>
<path d="M36.9198 48.3158H34.8267V47.0914H40.5001V48.3158H38.4123V53.995H36.9198V48.3158Z" fill="#111111"/>
<path d="M41.421 47.0914H42.9108V49.784H45.684V47.0914H47.1738V53.995H45.684V51.0083H42.9108V53.995H41.421V47.0914Z" fill="#F00A0C"/>
<path d="M41.421 47.0914H42.9108V49.784H45.684V47.0914H47.1738V53.995H45.684V51.0083H42.9108V53.995H41.421V47.0914Z" fill="#111111"/>
<path d="M14.1708 55.9853H15.6606V58.6779H18.4338V55.9853H19.9235V62.8889H18.4338V59.9022H15.6606V62.8889H14.1708V55.9853Z" fill="#F00A0C"/>
<path d="M14.1708 55.9853H15.6606V58.6779H18.4338V55.9853H19.9235V62.8889H18.4338V59.9022H15.6606V62.8889H14.1708V55.9853Z" fill="#111111"/>
<path d="M28.4124 59.4119C28.4124 61.3333 27.2613 62.987 25.0227 62.987C22.784 62.987 21.7282 61.4128 21.7282 59.4358C21.7282 57.4588 22.9798 55.8846 25.1206 55.8846C27.137 55.8846 28.4151 57.2998 28.4151 59.4119H28.4124ZM23.2656 59.4066C23.2656 60.7529 23.8557 61.7732 25.0783 61.7732C26.404 61.7732 26.8724 60.6628 26.8724 59.4305C26.8724 58.124 26.3378 57.0984 25.0544 57.0984C23.7711 57.0984 23.2656 58.0604 23.2656 59.4066Z" fill="#F00A0C"/>
<path d="M28.4124 59.4119C28.4124 61.3333 27.2613 62.987 25.0227 62.987C22.784 62.987 21.7282 61.4128 21.7282 59.4358C21.7282 57.4588 22.9798 55.8846 25.1206 55.8846C27.137 55.8846 28.4151 57.2998 28.4151 59.4119H28.4124ZM23.2656 59.4066C23.2656 60.7529 23.8557 61.7732 25.0783 61.7732C26.404 61.7732 26.8724 60.6628 26.8724 59.4305C26.8724 58.124 26.3378 57.0984 25.0544 57.0984C23.7711 57.0984 23.2656 58.0604 23.2656 59.4066Z" fill="#111111"/>
<path d="M31.6726 60.1248V62.8889H30.2172V55.9853H33.247C34.75 55.9853 35.5598 56.8148 35.5598 57.8802C35.5598 58.8077 35.057 59.3086 34.5569 59.5127C34.8982 59.6399 35.4142 59.995 35.4142 61.2299V61.5718C35.4142 62.0356 35.4169 62.5656 35.5121 62.8889H34.0991C33.9774 62.5895 33.9562 62.0727 33.9562 61.3386V61.2379C33.9562 60.4826 33.7657 60.1248 32.6543 60.1248H31.6752H31.6726ZM31.6726 58.9349H32.9215C33.7366 58.9349 34.0515 58.6249 34.0515 58.0471C34.0515 57.4694 33.6863 57.1726 32.9559 57.1726H31.6699V58.9376L31.6726 58.9349Z" fill="#F00A0C"/>
<path d="M31.6726 60.1248V62.8889H30.2172V55.9853H33.247C34.75 55.9853 35.5598 56.8148 35.5598 57.8802C35.5598 58.8077 35.057 59.3086 34.5569 59.5127C34.8982 59.6399 35.4142 59.995 35.4142 61.2299V61.5718C35.4142 62.0356 35.4169 62.5656 35.5121 62.8889H34.0991C33.9774 62.5895 33.9562 62.0727 33.9562 61.3386V61.2379C33.9562 60.4826 33.7657 60.1248 32.6543 60.1248H31.6752H31.6726ZM31.6726 58.9349H32.9215C33.7366 58.9349 34.0515 58.6249 34.0515 58.0471C34.0515 57.4694 33.6863 57.1726 32.9559 57.1726H31.6699V58.9376L31.6726 58.9349Z" fill="#111111"/>
<path d="M38.8727 55.9853V62.8889H37.3829V55.9853H38.8727Z" fill="#F00A0C"/>
<path d="M38.8727 55.9853V62.8889H37.3829V55.9853H38.8727Z" fill="#111111"/>
<path d="M40.4525 61.7944L44.2339 57.2097H40.6219V55.9853H45.9301V57.1964L42.2757 61.6646H46.1259L45.938 62.8889H40.4525V61.7944Z" fill="#F00A0C"/>
<path d="M40.4525 61.7944L44.2339 57.2097H40.6219V55.9853H45.9301V57.1964L42.2757 61.6646H46.1259L45.938 62.8889H40.4525V61.7944Z" fill="#111111"/>
<path d="M53.8236 59.4119C53.8236 61.3333 52.6725 62.987 50.4338 62.987C48.1952 62.987 47.1393 61.4128 47.1393 59.4358C47.1393 57.4588 48.391 55.8846 50.5317 55.8846C52.5481 55.8846 53.8262 57.2998 53.8262 59.4119H53.8236ZM48.6794 59.4066C48.6794 60.7529 49.2695 61.7732 50.492 61.7732C51.8178 61.7732 52.2861 60.6628 52.2861 59.4305C52.2861 58.124 51.7516 57.0984 50.4682 57.0984C49.1848 57.0984 48.6794 58.0604 48.6794 59.4066Z" fill="#F00A0C"/>
<path d="M53.8236 59.4119C53.8236 61.3333 52.6725 62.987 50.4338 62.987C48.1952 62.987 47.1393 61.4128 47.1393 59.4358C47.1393 57.4588 48.391 55.8846 50.5317 55.8846C52.5481 55.8846 53.8262 57.2998 53.8262 59.4119H53.8236ZM48.6794 59.4066C48.6794 60.7529 49.2695 61.7732 50.492 61.7732C51.8178 61.7732 52.2861 60.6628 52.2861 59.4305C52.2861 58.124 51.7516 57.0984 50.4682 57.0984C49.1848 57.0984 48.6794 58.0604 48.6794 59.4066Z" fill="#111111"/>
<path d="M55.6283 62.8863V55.9827H57.4753C58.3353 57.533 59.9283 60.3289 60.2432 61.0789H60.2618C60.185 60.3581 60.185 59.1602 60.185 58.0259V55.98H61.5346V62.8836H59.7828C59.0419 61.5347 57.2795 58.3227 56.9382 57.525H56.9196C56.9699 58.1293 56.9858 59.5471 56.9858 60.7821V62.881H55.6257L55.6283 62.8863Z" fill="#F00A0C"/>
<path d="M55.6283 62.8863V55.9827H57.4753C58.3353 57.533 59.9283 60.3289 60.2432 61.0789H60.2618C60.185 60.3581 60.185 59.1602 60.185 58.0259V55.98H61.5346V62.8836H59.7828C59.0419 61.5347 57.2795 58.3227 56.9382 57.525H56.9196C56.9699 58.1293 56.9858 59.5471 56.9858 60.7821V62.881H55.6257L55.6283 62.8863Z" fill="#111111"/>
<path d="M63.2942 56.2556H62.7544V55.98H64.1304V56.2556H63.5906V57.6761H63.2942V56.2556Z" fill="#F00A0C"/>
<path d="M63.2942 56.2556H62.7544V55.98H64.1304V56.2556H63.5906V57.6761H63.2942V56.2556Z" fill="#111111"/>
<path d="M64.44 55.98H64.7575L65.2735 56.783L65.7895 55.98H66.1071V57.6761H65.8107V56.4597L65.2762 57.26H65.2656L64.7364 56.465V57.6761H64.4427V55.98H64.44Z" fill="#F00A0C"/>
<path d="M64.44 55.98H64.7575L65.2735 56.783L65.7895 55.98H66.1071V57.6761H65.8107V56.4597L65.2762 57.26H65.2656L64.7364 56.465V57.6761H64.4427V55.98H64.44Z" fill="#111111"/>
</svg>
