<svg width="147" height="11" viewBox="0 0 147 11" fill="none" xmlns="http://www.w3.org/2000/svg">
<path d="M4.19 10.64C2.678 10.64 1.278 10.136 0.102 9.072L1.138 7.84C2.09 8.666 3.014 9.114 4.232 9.114C5.296 9.114 5.968 8.61 5.968 7.882V7.854C5.968 7.168 5.576 6.762 3.756 6.356C1.67 5.866 0.494 5.222 0.494 3.43V3.402C0.494 1.722 1.894 0.559999 3.84 0.559999C5.282 0.559999 6.388 0.994 7.396 1.792L6.472 3.094C5.576 2.436 4.708 2.086 3.812 2.086C2.804 2.086 2.216 2.59 2.216 3.248V3.276C2.216 4.032 2.664 4.368 4.554 4.816C6.612 5.348 7.69 6.048 7.69 7.686V7.714C7.69 9.562 6.248 10.64 4.19 10.64ZM16.3911 10.668C13.3811 10.668 11.2811 8.386 11.2811 5.628V5.6C11.2811 2.856 13.4091 0.532 16.4191 0.532C19.4291 0.532 21.5291 2.814 21.5291 5.572V5.6C21.5291 8.344 19.4011 10.668 16.3911 10.668ZM16.4191 9.072C18.3651 9.072 19.7231 7.532 19.7231 5.628V5.6C19.7231 3.696 18.3511 2.128 16.3911 2.128C14.4451 2.128 13.0871 3.668 13.0871 5.572V5.6C13.0871 7.504 14.4591 9.072 16.4191 9.072ZM29.6276 10.654C27.0936 10.654 25.4556 9.184 25.4556 6.342V0.699999H27.1776V6.272C27.1776 8.106 28.1016 9.058 29.6556 9.058C31.1816 9.058 32.1196 8.148 32.1196 6.342V0.699999H33.8416V6.258C33.8416 9.184 32.1896 10.654 29.6276 10.654ZM40.5993 10.5V2.296H37.4773V0.699999H45.4433V2.296H42.3213V10.5H40.5993ZM49.2288 10.5V0.699999H50.9508V4.774H55.6268V0.699999H57.3488V10.5H55.6268V6.37H50.9508V10.5H49.2288ZM68.0627 10.5V0.699999H69.7847V4.774H74.4607V0.699999H76.1827V10.5H74.4607V6.37H69.7847V10.5H68.0627ZM85.3755 10.668C82.3655 10.668 80.2655 8.386 80.2655 5.628V5.6C80.2655 2.856 82.3935 0.532 85.4035 0.532C88.4135 0.532 90.5135 2.814 90.5135 5.572V5.6C90.5135 8.344 88.3855 10.668 85.3755 10.668ZM85.4035 9.072C87.3495 9.072 88.7075 7.532 88.7075 5.628V5.6C88.7075 3.696 87.3355 2.128 85.3755 2.128C83.4295 2.128 82.0715 3.668 82.0715 5.572V5.6C82.0715 7.504 83.4435 9.072 85.4035 9.072ZM94.594 10.5V0.699999H98.962C100.194 0.699999 101.16 1.064 101.79 1.68C102.308 2.226 102.602 2.94 102.602 3.794V3.822C102.602 5.432 101.636 6.398 100.278 6.79L102.924 10.5H100.88L98.472 7.084H96.316V10.5H94.594ZM96.316 5.558H98.836C100.068 5.558 100.852 4.928 100.852 3.92V3.892C100.852 2.828 100.11 2.268 98.822 2.268H96.316V5.558ZM106.809 10.5V0.699999H108.531V10.5H106.809ZM112.791 10.5V9.226L118.587 2.226H112.987V0.699999H120.841V1.974L115.045 8.974H120.841V10.5H112.791ZM129.155 10.668C126.145 10.668 124.045 8.386 124.045 5.628V5.6C124.045 2.856 126.173 0.532 129.183 0.532C132.193 0.532 134.293 2.814 134.293 5.572V5.6C134.293 8.344 132.165 10.668 129.155 10.668ZM129.183 9.072C131.129 9.072 132.487 7.532 132.487 5.628V5.6C132.487 3.696 131.115 2.128 129.155 2.128C127.209 2.128 125.851 3.668 125.851 5.572V5.6C125.851 7.504 127.223 9.072 129.183 9.072ZM138.373 10.5V0.699999H139.969L145.219 7.476V0.699999H146.913V10.5H145.471L140.067 3.528V10.5H138.373Z" fill="white"/>
</svg>
